<svg width="66" height="38" viewBox="0 0 66 38" fill="none" xmlns="http://www.w3.org/2000/svg">
<path fill-rule="evenodd" clip-rule="evenodd" d="M53.3468 22.3578C53.3552 22.3271 53.3755 22.301 53.4032 22.2853C53.4309 22.2696 53.4636 22.2656 53.4943 22.274C53.525 22.2825 53.551 22.3028 53.5667 22.3304C53.5824 22.3581 53.5865 22.3909 53.578 22.4216C52.3539 28.8893 46.4683 37.6619 35.1238 37.7496C30.6179 37.7815 26.3512 36.0629 24.2897 34.3482C24.2651 34.3275 24.246 34.3011 24.234 34.2713C24.2221 34.2414 24.2177 34.2091 24.2213 34.1772C24.2248 34.1452 24.2362 34.1146 24.2544 34.0881C24.2726 34.0616 24.297 34.04 24.3256 34.0252L29.3937 31.234C29.4494 31.2059 29.5108 31.1913 29.5732 31.1913C29.6355 31.1913 29.6969 31.2059 29.7526 31.234C31.3197 31.9637 33.5208 33.1919 37.5043 33.1719C40.9361 33.2153 44.2979 32.2004 47.1325 30.2655C49.9671 28.3306 52.1369 25.5695 53.3468 22.3578ZM21.0957 20.1008C21.2496 20.0353 21.379 19.923 21.4656 19.7799C21.5521 19.6368 21.5915 19.4701 21.5782 19.3033C20.7567 12.4528 26.0123 2.8189 37.5043 2.57566C41.6593 2.48793 45.4794 4.10288 47.0744 4.84057C47.1006 4.85237 47.1301 4.85436 47.1576 4.84618C47.1852 4.83799 47.2088 4.82018 47.2243 4.796C47.2398 4.77181 47.246 4.74287 47.242 4.71445C47.2379 4.68603 47.2237 4.66003 47.202 4.6412C44.6739 2.50389 40.3076 0.127322 35.1278 0.254923C23.0296 0.538037 17.2078 9.89276 16.4662 17.1301C16.4532 17.2722 16.4023 17.4082 16.3188 17.5239C16.2353 17.6397 16.1224 17.7309 15.9917 17.7881C11.5296 19.7021 3.5785 23.7693 1.30162 27.4099C-0.899492 30.9269 2.02735 33.8976 12.4946 31.8959C38.7684 26.8756 58.5505 16.8988 65.1299 12.5285C65.1534 12.5113 65.1698 12.486 65.176 12.4575C65.1823 12.429 65.1778 12.3992 65.1636 12.3738C65.1494 12.3483 65.1264 12.3289 65.0989 12.3192C65.0714 12.3095 65.0413 12.3102 65.0143 12.3212C44.2034 21.6998 11.7968 30.4764 10.9395 26.8716C10.5965 25.4162 15.9956 22.286 21.0957 20.1008Z" fill="white"/>
<path fill-rule="evenodd" clip-rule="evenodd" d="M51.8821 11.4401L50.8294 14.8534C50.8226 14.8789 50.8076 14.9015 50.7867 14.9176C50.7658 14.9337 50.7401 14.9424 50.7137 14.9424C50.6873 14.9424 50.6617 14.9337 50.6408 14.9176C50.6198 14.9015 50.6048 14.8789 50.5981 14.8534L49.5374 11.4441C49.461 11.1978 49.326 10.9738 49.1441 10.7912C48.9621 10.6085 48.7386 10.4727 48.4927 10.3953L45.0793 9.33067C45.0554 9.32281 45.0346 9.30759 45.0198 9.28718C45.005 9.26678 44.9971 9.24222 44.9971 9.21703C44.9971 9.19184 45.005 9.16729 45.0198 9.14688C45.0346 9.12647 45.0554 9.11126 45.0793 9.10339L48.4966 8.05068C48.7405 7.97393 48.9624 7.83968 49.1435 7.65925C49.3246 7.47882 49.4597 7.25749 49.5374 7.01393L50.5901 3.64048C50.599 3.61699 50.6148 3.59675 50.6355 3.58248C50.6561 3.5682 50.6806 3.56055 50.7057 3.56055C50.7308 3.56055 50.7554 3.5682 50.776 3.58248C50.7967 3.59675 50.8125 3.61699 50.8214 3.64048L51.8621 7.0219C51.9387 7.26975 52.0747 7.49516 52.2581 7.67861C52.4416 7.86205 52.667 7.99798 52.9148 8.07461L56.2962 9.11535C56.3202 9.12322 56.341 9.13844 56.3558 9.15884C56.3706 9.17925 56.3785 9.2038 56.3785 9.22899C56.3785 9.25418 56.3706 9.27874 56.3558 9.29915C56.341 9.31955 56.3202 9.33477 56.2962 9.34264L52.9228 10.3993C52.6785 10.4765 52.4564 10.6113 52.2752 10.7925C52.094 10.9736 51.9592 11.1958 51.8821 11.4401Z" fill="white"/>
</svg>
